<svg width="155" height="47" viewBox="0 0 155 47" fill="none" xmlns="http://www.w3.org/2000/svg">
<path d="M11.64 7.4C11.16 7.4 10.64 7.35333 10.08 7.26C9.53333 7.16667 8.96 7.05333 8.36 6.92V20H6.2V6.6C6.05333 6.57333 5.91333 6.56 5.78 6.56C5.66 6.56 5.53333 6.56 5.4 6.56C4.28 6.56 3.42 6.76667 2.82 7.18C2.23333 7.58 1.94 8.31333 1.94 9.38C1.94 10.18 2.02667 10.7933 2.2 11.22C2.38667 11.6333 2.57333 11.9467 2.76 12.16C2.42667 12.16 2.11333 12.1133 1.82 12.02C1.54 11.9133 1.29333 11.7467 1.08 11.52C0.866667 11.2933 0.7 11 0.58 10.64C0.46 10.2667 0.4 9.80667 0.4 9.26C0.4 8.71333 0.506667 8.18667 0.72 7.68C0.933333 7.17333 1.27333 6.72667 1.74 6.34C2.22 5.94 2.83333 5.62 3.58 5.38C4.34 5.14 5.26667 5.02 6.36 5.02C6.89333 5.02 7.37333 5.04667 7.8 5.1C8.24 5.14 8.64667 5.19333 9.02 5.26C9.40667 5.31333 9.78667 5.36667 10.16 5.42C10.5333 5.46 10.9267 5.48 11.34 5.48C11.9 5.48 12.3667 5.44 12.74 5.36C13.1267 5.26667 13.4467 5.16667 13.7 5.06C13.74 5.3 13.76 5.52667 13.76 5.74C13.76 6.84667 13.0533 7.4 11.64 7.4ZM16.358 6V11.5L18.818 9.66L18.958 10.54L16.358 12.48V16.8C16.358 16.9333 16.3646 17.1 16.378 17.3C16.3913 17.5 16.4246 17.7 16.478 17.9C16.5446 18.0867 16.638 18.2533 16.758 18.4C16.878 18.5333 17.0446 18.6 17.258 18.6C17.9113 18.6 18.3913 17.8733 18.698 16.42H19.438C19.2913 17.26 19.1046 17.9267 18.878 18.42C18.6513 18.9 18.4113 19.2667 18.158 19.52C17.9046 19.7733 17.6446 19.9333 17.378 20C17.1113 20.08 16.8713 20.12 16.658 20.12C16.1913 20.12 15.8113 20.0333 15.518 19.86C15.2246 19.6733 14.9913 19.44 14.818 19.16C14.6446 18.88 14.5246 18.5667 14.458 18.22C14.3913 17.8733 14.358 17.54 14.358 17.22V13.98L13.318 14.74L13.138 13.88L14.358 12.98V6.28L16.358 6ZM25.4144 10V16.8C25.4144 16.9333 25.421 17.1 25.4344 17.3C25.4477 17.5 25.481 17.7 25.5344 17.9C25.601 18.0867 25.6944 18.2533 25.8144 18.4C25.9344 18.5333 26.101 18.6 26.3144 18.6C26.9677 18.6 27.4477 17.8733 27.7544 16.42H28.4944C28.3477 17.26 28.161 17.9267 27.9344 18.42C27.7077 18.9 27.4677 19.2667 27.2144 19.52C26.961 19.7733 26.701 19.9333 26.4344 20C26.1677 20.08 25.9277 20.12 25.7144 20.12C25.4077 20.12 25.141 20.0667 24.9144 19.96C24.701 19.8533 24.5144 19.7133 24.3544 19.54C24.2077 19.3667 24.0877 19.1667 23.9944 18.94C23.901 18.7133 23.8277 18.48 23.7744 18.24C23.521 18.8933 23.1877 19.3733 22.7744 19.68C22.361 19.9733 21.9277 20.12 21.4744 20.12C21.0877 20.12 20.721 20.0667 20.3744 19.96C20.0277 19.8533 19.7277 19.68 19.4744 19.44C19.221 19.1867 19.021 18.8667 18.8744 18.48C18.7277 18.08 18.6544 17.5933 18.6544 17.02V10H20.6544V16.8C20.6544 17.4533 20.7677 17.92 20.9944 18.2C21.221 18.4667 21.5077 18.6 21.8544 18.6C22.041 18.6 22.2277 18.5533 22.4144 18.46C22.601 18.3533 22.7677 18.2067 22.9144 18.02C23.061 17.8333 23.181 17.6067 23.2744 17.34C23.3677 17.0733 23.4144 16.7667 23.4144 16.42V10H25.4144ZM29.7364 10V11.38C30.0831 10.74 30.4497 10.3333 30.8364 10.16C31.2231 9.98667 31.5897 9.9 31.9364 9.9C32.2831 9.9 32.5831 9.94667 32.8364 10.04C33.1031 10.1333 33.3297 10.26 33.5164 10.42C33.7031 10.58 33.8564 10.7667 33.9764 10.98C34.1097 11.1933 34.2164 11.4267 34.2964 11.68C34.4831 11.28 34.6764 10.9667 34.8764 10.74C35.0764 10.5 35.2764 10.32 35.4764 10.2C35.6764 10.0667 35.8697 9.98667 36.0564 9.96C36.2564 9.92 36.4364 9.9 36.5964 9.9C37.1964 9.9 37.6764 10.0133 38.0364 10.24C38.4097 10.4667 38.6897 10.76 38.8764 11.12C39.0631 11.4667 39.1831 11.8533 39.2364 12.28C39.3031 12.6933 39.3364 13.0933 39.3364 13.48C39.3364 13.72 39.3297 13.9867 39.3164 14.28C39.3031 14.56 39.2897 14.8533 39.2764 15.16C39.2631 15.4533 39.2497 15.7533 39.2364 16.06C39.2231 16.3533 39.2164 16.6267 39.2164 16.88C39.2164 16.9867 39.2231 17.14 39.2364 17.34C39.2497 17.5267 39.2831 17.7133 39.3364 17.9C39.3897 18.0867 39.4764 18.2533 39.5964 18.4C39.7164 18.5333 39.8897 18.6 40.1164 18.6C40.4231 18.6 40.6964 18.4267 40.9364 18.08C41.1897 17.7333 41.3964 17.18 41.5564 16.42H42.2964C42.1497 17.26 41.9631 17.9267 41.7364 18.42C41.5097 18.9 41.2697 19.2667 41.0164 19.52C40.7631 19.7733 40.5097 19.9333 40.2564 20C40.0031 20.08 39.7697 20.12 39.5564 20.12C39.1297 20.12 38.7697 20.04 38.4764 19.88C38.1831 19.7067 37.9431 19.48 37.7564 19.2C37.5697 18.92 37.4297 18.5933 37.3364 18.22C37.2564 17.8467 37.2164 17.46 37.2164 17.06C37.2164 16.94 37.2164 16.72 37.2164 16.4C37.2297 16.0667 37.2364 15.7133 37.2364 15.34C37.2497 14.9667 37.2564 14.6133 37.2564 14.28C37.2697 13.9467 37.2764 13.7133 37.2764 13.58C37.2764 13.1533 37.2431 12.8 37.1764 12.52C37.1097 12.24 37.0164 12.02 36.8964 11.86C36.7764 11.7 36.6364 11.5867 36.4764 11.52C36.3297 11.4533 36.1697 11.42 35.9964 11.42C35.5831 11.42 35.2431 11.5867 34.9764 11.92C34.7231 12.2533 34.5431 12.8133 34.4364 13.6V20H32.4364V13.32C32.4364 13.08 32.4231 12.8467 32.3964 12.62C32.3831 12.3933 32.3364 12.1933 32.2564 12.02C32.1764 11.8333 32.0631 11.6867 31.9164 11.58C31.7697 11.4733 31.5697 11.42 31.3164 11.42C30.8897 11.42 30.5631 11.6 30.3364 11.96C30.1231 12.3067 29.9231 12.8533 29.7364 13.6V20H27.7364V10H29.7364ZM48.9836 10V16.8C48.9836 16.9333 48.9903 17.1 49.0036 17.3C49.0169 17.5 49.0503 17.7 49.1036 17.9C49.1703 18.0867 49.2636 18.2533 49.3836 18.4C49.5036 18.5333 49.6703 18.6 49.8836 18.6C50.5369 18.6 51.0169 17.8733 51.3236 16.42H52.0636C51.9169 17.26 51.7303 17.9267 51.5036 18.42C51.2769 18.9 51.0369 19.2667 50.7836 19.52C50.5303 19.7733 50.2703 19.9333 50.0036 20C49.7369 20.08 49.4969 20.12 49.2836 20.12C48.9769 20.12 48.7103 20.0667 48.4836 19.96C48.2703 19.8533 48.0836 19.7133 47.9236 19.54C47.7769 19.3667 47.6569 19.1667 47.5636 18.94C47.4703 18.7133 47.3969 18.4733 47.3436 18.22C47.1436 18.74 46.8169 19.1867 46.3636 19.56C45.9236 19.9333 45.3836 20.12 44.7436 20.12C44.3436 20.12 43.9369 20.04 43.5236 19.88C43.1236 19.72 42.7569 19.46 42.4236 19.1C42.1036 18.7267 41.8369 18.2533 41.6236 17.68C41.4236 17.0933 41.3236 16.38 41.3236 15.54C41.3236 14.9267 41.3903 14.2867 41.5236 13.62C41.6703 12.9533 41.8969 12.3467 42.2036 11.8C42.5103 11.2533 42.9036 10.8 43.3836 10.44C43.8636 10.08 44.4436 9.9 45.1236 9.9C45.2836 9.9 45.4503 9.92 45.6236 9.96C45.8103 9.98667 45.9836 10.04 46.1436 10.12C46.3169 10.2 46.4769 10.3133 46.6236 10.46C46.7703 10.5933 46.8903 10.76 46.9836 10.96V10H48.9836ZM45.2436 18.6C45.4436 18.6 45.6436 18.5467 45.8436 18.44C46.0569 18.32 46.2436 18.1667 46.4036 17.98C46.5769 17.78 46.7169 17.5467 46.8236 17.28C46.9303 17.0133 46.9836 16.7267 46.9836 16.42V11.86C46.8903 11.6467 46.7436 11.4533 46.5436 11.28C46.3569 11.0933 46.1103 11 45.8036 11C45.3769 11 45.0103 11.1467 44.7036 11.44C44.3969 11.72 44.1503 12.08 43.9636 12.52C43.7769 12.9467 43.6369 13.42 43.5436 13.94C43.4636 14.4467 43.4236 14.9333 43.4236 15.4C43.4236 16.5467 43.5769 17.3667 43.8836 17.86C44.2036 18.3533 44.6569 18.6 45.2436 18.6ZM64.0906 18.3C63.984 18.2733 63.8973 18.2067 63.8306 18.1C63.764 17.9933 63.7306 17.8867 63.7306 17.78C63.7306 17.5667 63.8106 17.4067 63.9706 17.3C64.144 17.18 64.3373 17.12 64.5506 17.12C64.844 17.12 65.1106 17.22 65.3506 17.42C65.5906 17.62 65.7106 17.9133 65.7106 18.3C65.7106 18.5 65.6573 18.7 65.5506 18.9C65.444 19.1 65.2906 19.28 65.0906 19.44C64.8906 19.6 64.6506 19.7333 64.3706 19.84C64.0906 19.9467 63.7773 20 63.4306 20H58.1906L62.5106 11.08H61.0106C60.7173 11.08 60.4506 11.1 60.2106 11.14C59.984 11.1667 59.8706 11.24 59.8706 11.36C59.8706 11.4933 59.924 11.6 60.0306 11.68C60.1506 11.76 60.2106 11.8667 60.2106 12C60.2106 12.1467 60.124 12.2867 59.9506 12.42C59.7906 12.5533 59.5773 12.62 59.3106 12.62C58.9373 12.62 58.6506 12.48 58.4506 12.2C58.264 11.9067 58.1706 11.5667 58.1706 11.18C58.1706 10.8333 58.3173 10.5533 58.6106 10.34C58.9173 10.1133 59.4573 10 60.2306 10H64.9706L60.6906 18.6C60.7706 18.6 60.924 18.6067 61.1506 18.62C61.3906 18.6333 61.644 18.6467 61.9106 18.66C62.1773 18.6733 62.4373 18.6867 62.6906 18.7C62.944 18.7133 63.1373 18.72 63.2706 18.72C63.5106 18.72 63.6973 18.68 63.8306 18.6C63.9773 18.52 64.064 18.42 64.0906 18.3ZM55.8506 13.06C55.9573 12.9667 56.0373 12.82 56.0906 12.62C56.1573 12.42 56.1906 12.2333 56.1906 12.06C56.1906 11.7133 56.0906 11.4467 55.8906 11.26C55.6906 11.06 55.4373 10.96 55.1306 10.96C54.7573 10.96 54.444 11.0933 54.1906 11.36C53.9506 11.6267 53.7573 11.9667 53.6106 12.38C53.464 12.78 53.3573 13.2267 53.2906 13.72C53.2373 14.2 53.2106 14.6667 53.2106 15.12C53.2106 15.84 53.2706 16.4267 53.3906 16.88C53.5106 17.3333 53.6773 17.6867 53.8906 17.94C54.104 18.1933 54.3506 18.3667 54.6306 18.46C54.9106 18.5533 55.204 18.6 55.5106 18.6C56.3773 18.6 57.0906 18.2867 57.6506 17.66C57.6506 18.1133 57.5706 18.5 57.4106 18.82C57.264 19.1267 57.064 19.38 56.8106 19.58C56.5706 19.7667 56.2906 19.9067 55.9706 20C55.6506 20.08 55.324 20.12 54.9906 20.12C54.5106 20.12 54.0373 20.0467 53.5706 19.9C53.104 19.74 52.684 19.4733 52.3106 19.1C51.9506 18.7267 51.6573 18.24 51.4306 17.64C51.204 17.0267 51.0906 16.26 51.0906 15.34C51.0906 14.82 51.1373 14.2467 51.2306 13.62C51.3373 12.98 51.5306 12.3867 51.8106 11.84C52.0906 11.28 52.4706 10.82 52.9506 10.46C53.444 10.0867 54.0773 9.9 54.8506 9.9C55.664 9.9 56.284 10.1133 56.7106 10.54C57.1506 10.9533 57.3706 11.52 57.3706 12.24C57.3706 12.6267 57.304 12.9333 57.1706 13.16C57.0506 13.3733 56.8573 13.48 56.5906 13.48C56.2973 13.48 56.0506 13.34 55.8506 13.06ZM72.1995 12.5C72.1995 13.4333 71.8129 14.2133 71.0395 14.84C70.2795 15.4667 69.2195 15.8533 67.8595 16C67.9129 16.5333 68.0062 16.9667 68.1395 17.3C68.2862 17.6333 68.4595 17.9 68.6595 18.1C68.8595 18.2867 69.0862 18.42 69.3395 18.5C69.6062 18.5667 69.8795 18.6 70.1595 18.6C70.7995 18.6 71.3995 18.4333 71.9595 18.1C72.5195 17.7667 72.9729 17.2067 73.3195 16.42H73.9595C73.7862 16.9133 73.5462 17.3867 73.2395 17.84C72.9329 18.28 72.5729 18.6733 72.1595 19.02C71.7462 19.3533 71.2995 19.62 70.8195 19.82C70.3395 20.02 69.8462 20.12 69.3395 20.12C68.8729 20.12 68.4195 20.04 67.9795 19.88C67.5529 19.72 67.1729 19.46 66.8395 19.1C66.5062 18.7267 66.2329 18.2467 66.0195 17.66C65.8195 17.0733 65.7195 16.3533 65.7195 15.5C65.7195 14.94 65.7795 14.3333 65.8995 13.68C66.0329 13.0267 66.2462 12.42 66.5395 11.86C66.8462 11.3 67.2395 10.8333 67.7195 10.46C68.2129 10.0867 68.8195 9.9 69.5395 9.9C69.8729 9.9 70.1929 9.94 70.4995 10.02C70.8195 10.0867 71.1062 10.22 71.3595 10.42C71.6129 10.6067 71.8129 10.8667 71.9595 11.2C72.1195 11.5333 72.1995 11.9667 72.1995 12.5ZM67.8395 15.22C68.7862 15.0733 69.5329 14.74 70.0795 14.22C70.6395 13.7 70.9195 13.06 70.9195 12.3C70.9195 11.7933 70.8329 11.4333 70.6595 11.22C70.4862 10.9933 70.2395 10.88 69.9195 10.88C69.5729 10.88 69.2662 11.0133 68.9995 11.28C68.7462 11.5467 68.5329 11.8933 68.3595 12.32C68.1862 12.7333 68.0529 13.2 67.9595 13.72C67.8795 14.2267 67.8395 14.7267 67.8395 15.22ZM75.3028 10V11.52C75.5028 11.16 75.7028 10.8733 75.9028 10.66C76.1161 10.4333 76.3295 10.2667 76.5428 10.16C76.7561 10.0533 76.9561 9.98667 77.1428 9.96C77.3428 9.92 77.5295 9.9 77.7028 9.9C78.3028 9.9 78.7828 10.0133 79.1428 10.24C79.5161 10.4667 79.7961 10.76 79.9828 11.12C80.1695 11.4667 80.2895 11.8533 80.3428 12.28C80.4095 12.6933 80.4428 13.0933 80.4428 13.48C80.4428 13.72 80.4361 13.9867 80.4228 14.28C80.4095 14.56 80.3961 14.8533 80.3828 15.16C80.3695 15.4533 80.3561 15.7533 80.3428 16.06C80.3295 16.3533 80.3228 16.6267 80.3228 16.88C80.3228 16.9867 80.3295 17.14 80.3428 17.34C80.3561 17.5267 80.3895 17.7133 80.4428 17.9C80.4961 18.0867 80.5828 18.2533 80.7028 18.4C80.8228 18.5333 80.9961 18.6 81.2228 18.6C81.5295 18.6 81.8028 18.4267 82.0428 18.08C82.2961 17.7333 82.5028 17.18 82.6628 16.42H83.4028C83.2561 17.26 83.0695 17.9267 82.8428 18.42C82.6161 18.9 82.3761 19.2667 82.1228 19.52C81.8695 19.7733 81.6161 19.9333 81.3628 20C81.1095 20.08 80.8761 20.12 80.6628 20.12C80.2361 20.12 79.8761 20.04 79.5828 19.88C79.2895 19.7067 79.0495 19.48 78.8628 19.2C78.6761 18.92 78.5361 18.5933 78.4428 18.22C78.3628 17.8467 78.3228 17.46 78.3228 17.06C78.3228 16.94 78.3228 16.72 78.3228 16.4C78.3361 16.0667 78.3428 15.7133 78.3428 15.34C78.3561 14.9667 78.3628 14.6133 78.3628 14.28C78.3761 13.9467 78.3828 13.7133 78.3828 13.58C78.3828 13.1533 78.3495 12.8 78.2828 12.52C78.2161 12.24 78.1228 12.02 78.0028 11.86C77.8828 11.7 77.7428 11.5867 77.5828 11.52C77.4361 11.4533 77.2761 11.42 77.1028 11.42C76.6895 11.42 76.3295 11.5867 76.0228 11.92C75.7295 12.2533 75.4895 12.8133 75.3028 13.6V20H73.3028V10H75.3028ZM84.6587 10V16.8C84.6587 16.9333 84.6654 17.1 84.6788 17.3C84.6921 17.5 84.7254 17.7 84.7788 17.9C84.8454 18.0867 84.9388 18.2533 85.0588 18.4C85.1788 18.5333 85.3454 18.6 85.5588 18.6C86.2121 18.6 86.6921 17.8733 86.9987 16.42H87.7388C87.5921 17.26 87.4054 17.9267 87.1788 18.42C86.9521 18.9 86.7121 19.2667 86.4588 19.52C86.2054 19.7733 85.9454 19.9333 85.6788 20C85.4121 20.08 85.1721 20.12 84.9588 20.12C84.4921 20.12 84.1121 20.0333 83.8188 19.86C83.5254 19.6733 83.2921 19.44 83.1188 19.16C82.9454 18.88 82.8254 18.5667 82.7588 18.22C82.6921 17.8733 82.6588 17.54 82.6588 17.22V10H84.6587ZM82.2988 7.12C82.2988 6.76 82.4254 6.44667 82.6788 6.18C82.9321 5.91333 83.2454 5.78 83.6188 5.78C83.9788 5.78 84.2921 5.91333 84.5588 6.18C84.8254 6.44667 84.9588 6.76 84.9588 7.12C84.9588 7.49333 84.8254 7.80667 84.5588 8.06C84.2921 8.31333 83.9788 8.44 83.6188 8.44C83.2454 8.44 82.9321 8.31333 82.6788 8.06C82.4254 7.80667 82.2988 7.49333 82.2988 7.12ZM93.2347 12.5C93.2347 13.4333 92.848 14.2133 92.0747 14.84C91.3147 15.4667 90.2547 15.8533 88.8947 16C88.948 16.5333 89.0414 16.9667 89.1747 17.3C89.3214 17.6333 89.4947 17.9 89.6947 18.1C89.8947 18.2867 90.1214 18.42 90.3747 18.5C90.6414 18.5667 90.9147 18.6 91.1947 18.6C91.6214 18.6 92.0214 18.5267 92.3947 18.38C92.7814 18.2333 93.1014 17.98 93.3547 17.62C93.368 17.7133 93.3747 17.8067 93.3747 17.9C93.388 17.98 93.3947 18.0533 93.3947 18.12C93.3947 18.4267 93.3147 18.7 93.1547 18.94C93.008 19.18 92.8014 19.3933 92.5347 19.58C92.2814 19.7533 91.9814 19.8867 91.6347 19.98C91.3014 20.0733 90.948 20.12 90.5747 20.12C90.1214 20.12 89.668 20.04 89.2147 19.88C88.7614 19.7067 88.348 19.44 87.9747 19.08C87.6147 18.7067 87.3214 18.2267 87.0947 17.64C86.868 17.0533 86.7547 16.34 86.7547 15.5C86.7547 14.94 86.8147 14.3333 86.9347 13.68C87.068 13.0267 87.2814 12.42 87.5747 11.86C87.8814 11.3 88.2747 10.8333 88.7547 10.46C89.248 10.0867 89.8547 9.9 90.5747 9.9C90.908 9.9 91.228 9.94 91.5347 10.02C91.8547 10.0867 92.1414 10.22 92.3947 10.42C92.648 10.6067 92.848 10.8667 92.9947 11.2C93.1547 11.5333 93.2347 11.9667 93.2347 12.5ZM88.8747 15.22C89.8214 15.0733 90.568 14.74 91.1147 14.22C91.6747 13.7 91.9547 13.06 91.9547 12.3C91.9547 11.7933 91.868 11.4333 91.6947 11.22C91.5214 10.9933 91.2747 10.88 90.9547 10.88C90.608 10.88 90.3014 11.0133 90.0347 11.28C89.7814 11.5467 89.568 11.8933 89.3947 12.32C89.2214 12.7333 89.088 13.2 88.9947 13.72C88.9147 14.2267 88.8747 14.7267 88.8747 15.22Z" fill="black"/>
<path d="M26.8 22.88V29.68C27.3867 29.68 27.8867 29.56 28.3 29.32C28.7267 29.0667 29.0733 28.7467 29.34 28.36C29.6067 27.9733 29.8 27.54 29.92 27.06C30.0533 26.5667 30.12 26.08 30.12 25.6C30.12 25.1733 30.0733 24.7333 29.98 24.28C29.9 23.8267 29.72 23.4133 29.44 23.04C29.16 22.6533 28.76 22.34 28.24 22.1C27.72 21.8467 27.0267 21.72 26.16 21.72C25.5733 21.72 25.02 21.8133 24.5 22C23.98 22.1733 23.5267 22.4333 23.14 22.78C22.7667 23.1133 22.4667 23.5333 22.24 24.04C22.0267 24.5333 21.92 25.1067 21.92 25.76C21.92 26.1733 21.9533 26.52 22.02 26.8C22.0867 27.08 22.1667 27.3133 22.26 27.5C22.3533 27.6867 22.4467 27.8333 22.54 27.94C22.6333 28.0333 22.7067 28.1 22.76 28.14C22.0133 28.14 21.4267 27.9533 21 27.58C20.5733 27.2067 20.36 26.5867 20.36 25.72C20.36 25.08 20.5267 24.48 20.86 23.92C21.1933 23.3467 21.64 22.8467 22.2 22.42C22.76 21.98 23.4067 21.6333 24.14 21.38C24.8733 21.1267 25.6467 21 26.46 21C27.34 21 28.1267 21.1133 28.82 21.34C29.5133 21.5533 30.0933 21.86 30.56 22.26C31.0267 22.6467 31.38 23.1 31.62 23.62C31.8733 24.14 32 24.7 32 25.3C32 25.86 31.9 26.44 31.7 27.04C31.5 27.6267 31.2 28.16 30.8 28.64C30.4 29.12 29.9 29.52 29.3 29.84C28.7133 30.1467 28.0267 30.3 27.24 30.3H26.8V36H24.64V23.18L26.8 22.88ZM43.0917 34.3C42.9851 34.2733 42.8984 34.2067 42.8317 34.1C42.7651 33.9933 42.7317 33.88 42.7317 33.76C42.7317 33.5733 42.8117 33.42 42.9717 33.3C43.1317 33.18 43.3251 33.12 43.5517 33.12C43.8451 33.12 44.1117 33.2267 44.3517 33.44C44.5917 33.64 44.7117 33.9133 44.7117 34.26C44.7117 34.4733 44.6584 34.6867 44.5517 34.9C44.4451 35.1 44.2917 35.2867 44.0917 35.46C43.8917 35.62 43.6517 35.7533 43.3717 35.86C43.0917 35.9533 42.7784 36 42.4317 36H37.1917L41.5117 27.08H38.7517C38.8317 27.1867 38.8717 27.3067 38.8717 27.44C38.8717 27.6667 38.7717 27.8867 38.5717 28.1C38.3717 28.3133 38.1384 28.42 37.8717 28.42C37.6584 28.42 37.4984 28.38 37.3917 28.3C37.2984 28.22 37.2184 28.1333 37.1517 28.04C37.0984 27.9333 37.0317 27.84 36.9517 27.76C36.8717 27.68 36.7451 27.64 36.5717 27.64C36.2651 27.64 35.9717 27.7533 35.6917 27.98C35.4117 28.1933 35.1584 28.4133 34.9317 28.64V36H32.9317V26H34.9317V27.68C35.2117 27.28 35.4651 26.9667 35.6917 26.74C35.9317 26.5133 36.1917 26.3467 36.4717 26.24C36.7651 26.1333 37.1051 26.0667 37.4917 26.04C37.8917 26.0133 38.3984 26 39.0117 26H43.9717L39.6917 34.6C39.7717 34.6 39.9251 34.6067 40.1517 34.62C40.3917 34.6333 40.6451 34.6467 40.9117 34.66C41.1784 34.6733 41.4317 34.6867 41.6717 34.7C41.9251 34.7133 42.1051 34.72 42.2117 34.72C42.7317 34.72 43.0251 34.58 43.0917 34.3ZM51.6839 26V35.58C52.0172 35.4733 52.3106 35.3533 52.5639 35.22C52.8306 35.0867 53.0572 34.9067 53.2439 34.68C53.4439 34.4533 53.6039 34.16 53.7239 33.8C53.8572 33.44 53.9572 32.98 54.0239 32.42H54.7639C54.6572 33.1267 54.5172 33.7067 54.3439 34.16C54.1839 34.6 53.9772 34.96 53.7239 35.24C53.4839 35.5067 53.1906 35.72 52.8439 35.88C52.5106 36.0267 52.1239 36.1667 51.6839 36.3V37.58C51.6839 38.2067 51.6172 38.7333 51.4839 39.16C51.3506 39.6 51.1639 39.9533 50.9239 40.22C50.6972 40.5 50.4306 40.7 50.1239 40.82C49.8306 40.94 49.5172 41 49.1839 41C48.5172 41 47.9972 40.8067 47.6239 40.42C47.2506 40.0467 47.0639 39.5867 47.0639 39.04C47.0639 38.6933 47.1372 38.38 47.2839 38.1C47.4439 37.82 47.6439 37.56 47.8839 37.32C48.1372 37.0933 48.4172 36.8867 48.7239 36.7C49.0439 36.5267 49.3639 36.3733 49.6839 36.24V34.98C49.4172 35.3667 49.1106 35.6533 48.7639 35.84C48.4306 36.0267 48.0906 36.12 47.7439 36.12C47.3572 36.12 46.9906 36.0667 46.6439 35.96C46.2972 35.8533 45.9972 35.68 45.7439 35.44C45.4906 35.1867 45.2906 34.8667 45.1439 34.48C44.9972 34.08 44.9239 33.5933 44.9239 33.02V26H46.9239V32.8C46.9239 33.4533 47.0372 33.92 47.2639 34.2C47.4906 34.4667 47.7772 34.6 48.1239 34.6C48.3106 34.6 48.4972 34.5533 48.6839 34.46C48.8706 34.3667 49.0372 34.2333 49.1839 34.06C49.3306 33.8733 49.4506 33.6533 49.5439 33.4C49.6372 33.1467 49.6839 32.8533 49.6839 32.52V26H51.6839ZM48.8039 39.96C49.1639 39.96 49.3972 39.82 49.5039 39.54C49.6239 39.2733 49.6839 38.9067 49.6839 38.44V37.04C49.0172 37.3467 48.5439 37.6467 48.2639 37.94C47.9839 38.2467 47.8439 38.5867 47.8439 38.96C47.8439 39.2667 47.9239 39.5067 48.0839 39.68C48.2572 39.8667 48.4972 39.96 48.8039 39.96ZM61.7059 32.42C61.3193 32.9533 60.9193 33.4 60.5059 33.76C60.1059 34.1067 59.7126 34.4133 59.3259 34.68C59.1793 34.9467 58.9926 35.1733 58.7659 35.36C58.5393 35.5333 58.2926 35.68 58.0259 35.8C57.7726 35.9067 57.5126 35.9867 57.2459 36.04C56.9926 36.0933 56.7593 36.12 56.5459 36.12C55.9593 36.12 55.4726 36.0267 55.0859 35.84C54.7126 35.6533 54.4126 35.42 54.1859 35.14C53.9593 34.8467 53.7993 34.5267 53.7059 34.18C53.6126 33.82 53.5659 33.48 53.5659 33.16C53.5659 32.8133 53.6326 32.5133 53.7659 32.26C53.9126 31.9933 54.0859 31.8067 54.2859 31.7C54.6326 30.7 54.9726 29.7133 55.3059 28.74C55.6393 27.7533 55.8593 26.7667 55.9659 25.78L57.9859 25.38C58.3059 26.6467 58.5659 27.68 58.7659 28.48C58.9793 29.28 59.1459 29.96 59.2659 30.52C59.3993 31.0667 59.4926 31.5533 59.5459 31.98C59.6126 32.3933 59.6459 32.8533 59.6459 33.36C59.8726 33.2133 60.0859 33.06 60.2859 32.9C60.4859 32.7267 60.6793 32.5667 60.8659 32.42H61.7059ZM57.5259 33.22C57.5259 32.8067 57.4993 32.44 57.4459 32.12C57.4059 31.8 57.3393 31.4467 57.2459 31.06C57.1526 30.6733 57.0326 30.2067 56.8859 29.66C56.7526 29.1 56.5926 28.3867 56.4059 27.52C56.3259 28.2667 56.1593 28.98 55.9059 29.66C55.6659 30.34 55.4459 31.04 55.2459 31.76C55.3659 31.84 55.4659 31.9533 55.5459 32.1C55.6393 32.2333 55.6859 32.4133 55.6859 32.64C55.6859 32.8933 55.6193 33.0867 55.4859 33.22C55.3526 33.3533 55.2059 33.42 55.0459 33.42C54.8326 33.42 54.6526 33.3267 54.5059 33.14C54.6126 33.6067 54.7993 33.9733 55.0659 34.24C55.3326 34.4933 55.6859 34.62 56.1259 34.62C56.5526 34.62 56.8926 34.5133 57.1459 34.3C57.3993 34.0733 57.5259 33.7133 57.5259 33.22ZM62.8619 26V32.8C62.8619 32.9333 62.8685 33.1 62.8819 33.3C62.8952 33.5 62.9285 33.7 62.9819 33.9C63.0485 34.0867 63.1419 34.2533 63.2619 34.4C63.3819 34.5333 63.5485 34.6 63.7619 34.6C64.4152 34.6 64.8952 33.8733 65.2019 32.42H65.9419C65.7952 33.26 65.6085 33.9267 65.3819 34.42C65.1552 34.9 64.9152 35.2667 64.6619 35.52C64.4085 35.7733 64.1485 35.9333 63.8819 36C63.6152 36.08 63.3752 36.12 63.1619 36.12C62.6952 36.12 62.3152 36.0333 62.0219 35.86C61.7285 35.6733 61.4952 35.44 61.3219 35.16C61.1485 34.88 61.0285 34.5667 60.9619 34.22C60.8952 33.8733 60.8619 33.54 60.8619 33.22V26H62.8619ZM60.5019 23.12C60.5019 22.76 60.6285 22.4467 60.8819 22.18C61.1352 21.9133 61.4485 21.78 61.8219 21.78C62.1819 21.78 62.4952 21.9133 62.7619 22.18C63.0285 22.4467 63.1619 22.76 63.1619 23.12C63.1619 23.4933 63.0285 23.8067 62.7619 24.06C62.4952 24.3133 62.1819 24.44 61.8219 24.44C61.4485 24.44 61.1352 24.3133 60.8819 24.06C60.6285 23.8067 60.5019 23.4933 60.5019 23.12ZM71.4578 28.36C71.4578 29.4133 71.0711 30.2467 70.2978 30.86C69.5378 31.46 68.4778 31.84 67.1178 32C67.1711 32.5333 67.2645 32.9667 67.3978 33.3C67.5445 33.6333 67.7178 33.9 67.9178 34.1C68.1178 34.2867 68.3445 34.42 68.5978 34.5C68.8511 34.5667 69.1178 34.6 69.3978 34.6C70.0378 34.6 70.6378 34.4333 71.1978 34.1C71.7711 33.7667 72.2311 33.2067 72.5778 32.42H73.2178C73.0578 32.94 72.8578 33.38 72.6178 33.74C72.3778 34.1 72.1311 34.4067 71.8778 34.66C71.6378 34.9 71.3978 35.1 71.1578 35.26C70.9311 35.4067 70.7445 35.5333 70.5978 35.64C70.2111 35.9333 69.9711 36.22 69.8778 36.5C69.7845 36.78 69.7378 37.0333 69.7378 37.26C69.7378 37.7667 69.8445 38.16 70.0578 38.44C70.2711 38.7333 70.6045 38.88 71.0578 38.88C71.3245 38.88 71.5578 38.82 71.7578 38.7C71.9578 38.58 72.1445 38.4067 72.3178 38.18L72.3978 38.8C72.3045 38.9067 72.1978 39.02 72.0778 39.14C71.9711 39.26 71.8378 39.3733 71.6778 39.48C71.5311 39.5867 71.3578 39.6733 71.1578 39.74C70.9578 39.82 70.7311 39.86 70.4778 39.86C70.1578 39.86 69.8711 39.8 69.6178 39.68C69.3778 39.56 69.1778 39.4067 69.0178 39.22C68.8578 39.0467 68.7311 38.8467 68.6378 38.62C68.5578 38.4067 68.5178 38.1933 68.5178 37.98C68.5178 37.7 68.5978 37.38 68.7578 37.02C68.9178 36.6733 69.1511 36.34 69.4578 36.02C69.3111 36.0467 69.1645 36.0667 69.0178 36.08C68.8845 36.1067 68.7378 36.12 68.5778 36.12C68.1245 36.12 67.6778 36.04 67.2378 35.88C66.8111 35.7067 66.4311 35.44 66.0978 35.08C65.7645 34.72 65.4911 34.2533 65.2778 33.68C65.0778 33.1067 64.9778 32.4067 64.9778 31.58C64.9778 31.0067 65.0378 30.3867 65.1578 29.72C65.2778 29.0533 65.4845 28.44 65.7778 27.88C66.0845 27.3067 66.4845 26.8333 66.9778 26.46C67.4845 26.0867 68.1111 25.9 68.8578 25.9C69.1778 25.9 69.4911 25.94 69.7978 26.02C70.1045 26.1 70.3778 26.24 70.6178 26.44C70.8711 26.6267 71.0711 26.88 71.2178 27.2C71.3778 27.5067 71.4578 27.8933 71.4578 28.36ZM67.0978 31.22C68.0578 31.06 68.8111 30.72 69.3578 30.2C69.9045 29.68 70.1778 29.02 70.1778 28.22C70.1778 27.3267 69.8511 26.88 69.1978 26.88C68.8378 26.88 68.5245 27.0133 68.2578 27.28C68.0045 27.5467 67.7911 27.8933 67.6178 28.32C67.4445 28.7333 67.3111 29.2 67.2178 29.72C67.1378 30.2267 67.0978 30.7267 67.0978 31.22ZM79.9406 26V35.58C80.274 35.4733 80.5673 35.3533 80.8206 35.22C81.0873 35.0867 81.314 34.9067 81.5006 34.68C81.7006 34.4533 81.8606 34.16 81.9806 33.8C82.114 33.44 82.214 32.98 82.2806 32.42H83.0206C82.914 33.1267 82.774 33.7067 82.6006 34.16C82.4406 34.6 82.234 34.96 81.9806 35.24C81.7406 35.5067 81.4473 35.72 81.1006 35.88C80.7673 36.0267 80.3806 36.1667 79.9406 36.3V37.58C79.9406 38.2067 79.874 38.7333 79.7406 39.16C79.6073 39.6 79.4206 39.9533 79.1806 40.22C78.954 40.5 78.6873 40.7 78.3806 40.82C78.0873 40.94 77.774 41 77.4406 41C76.774 41 76.254 40.8067 75.8806 40.42C75.5073 40.0467 75.3206 39.5867 75.3206 39.04C75.3206 38.6933 75.394 38.38 75.5406 38.1C75.7006 37.82 75.9006 37.56 76.1406 37.32C76.394 37.0933 76.674 36.8867 76.9806 36.7C77.3006 36.5267 77.6206 36.3733 77.9406 36.24V34.52C77.6873 34.8667 77.3673 35.1533 76.9806 35.38C76.6073 35.6067 76.1806 35.72 75.7006 35.72C75.3006 35.72 74.894 35.6467 74.4806 35.5C74.0806 35.34 73.714 35.0867 73.3806 34.74C73.0606 34.3933 72.794 33.94 72.5806 33.38C72.3806 32.82 72.2806 32.14 72.2806 31.34C72.2806 30.74 72.3473 30.12 72.4806 29.48C72.6273 28.84 72.854 28.26 73.1606 27.74C73.4673 27.2067 73.8606 26.7667 74.3406 26.42C74.8206 26.0733 75.4006 25.9 76.0806 25.9C76.2406 25.9 76.4073 25.92 76.5806 25.96C76.7673 25.9867 76.9406 26.04 77.1006 26.12C77.274 26.2 77.434 26.3133 77.5806 26.46C77.7273 26.5933 77.8473 26.76 77.9406 26.96V26H79.9406ZM76.2006 34.2C76.4006 34.2 76.6006 34.1467 76.8006 34.04C77.014 33.9333 77.2006 33.7867 77.3606 33.6C77.534 33.4133 77.674 33.1933 77.7806 32.94C77.8873 32.6867 77.9406 32.4133 77.9406 32.12V27.86C77.8473 27.6467 77.7006 27.4533 77.5006 27.28C77.314 27.0933 77.0673 27 76.7606 27C76.334 27 75.9673 27.14 75.6606 27.42C75.354 27.6867 75.1073 28.0267 74.9206 28.44C74.734 28.8533 74.594 29.3067 74.5006 29.8C74.4206 30.2933 74.3806 30.76 74.3806 31.2C74.3806 32.28 74.534 33.0533 74.8406 33.52C75.1606 33.9733 75.614 34.2 76.2006 34.2ZM77.0606 39.96C77.4206 39.96 77.654 39.82 77.7606 39.54C77.8806 39.2733 77.9406 38.9067 77.9406 38.44V37.04C77.274 37.3467 76.8006 37.6467 76.5206 37.94C76.2406 38.2467 76.1006 38.5867 76.1006 38.96C76.1006 39.2667 76.1806 39.5067 76.3406 39.68C76.514 39.8667 76.754 39.96 77.0606 39.96ZM84.2877 22V27.5L86.7477 25.66L86.8877 26.54L84.2877 28.48V32.8C84.2877 32.9333 84.2943 33.1 84.3077 33.3C84.321 33.5 84.3543 33.7 84.4077 33.9C84.4743 34.0867 84.5677 34.2533 84.6877 34.4C84.8077 34.5333 84.9743 34.6 85.1877 34.6C85.841 34.6 86.321 33.8733 86.6277 32.42H87.3677C87.221 33.26 87.0343 33.9267 86.8077 34.42C86.581 34.9 86.341 35.2667 86.0877 35.52C85.8343 35.7733 85.5743 35.9333 85.3077 36C85.041 36.08 84.801 36.12 84.5877 36.12C84.121 36.12 83.741 36.0333 83.4477 35.86C83.1543 35.6733 82.921 35.44 82.7477 35.16C82.5743 34.88 82.4543 34.5667 82.3877 34.22C82.321 33.8733 82.2877 33.54 82.2877 33.22V29.98L81.2477 30.74L81.0677 29.88L82.2877 28.98V22.28L84.2877 22ZM92.8441 28.5C92.8441 29.4333 92.4574 30.2133 91.6841 30.84C90.9241 31.4667 89.8641 31.8533 88.5041 32C88.5574 32.5333 88.6507 32.9667 88.7841 33.3C88.9307 33.6333 89.1041 33.9 89.3041 34.1C89.5041 34.2867 89.7307 34.42 89.9841 34.5C90.2507 34.5667 90.5241 34.6 90.8041 34.6C91.2307 34.6 91.6307 34.5267 92.0041 34.38C92.3907 34.2333 92.7107 33.98 92.9641 33.62C92.9774 33.7133 92.9841 33.8067 92.9841 33.9C92.9974 33.98 93.0041 34.0533 93.0041 34.12C93.0041 34.4267 92.9241 34.7 92.7641 34.94C92.6174 35.18 92.4107 35.3933 92.1441 35.58C91.8907 35.7533 91.5907 35.8867 91.2441 35.98C90.9107 36.0733 90.5574 36.12 90.1841 36.12C89.7307 36.12 89.2774 36.04 88.8241 35.88C88.3707 35.7067 87.9574 35.44 87.5841 35.08C87.2241 34.7067 86.9307 34.2267 86.7041 33.64C86.4774 33.0533 86.3641 32.34 86.3641 31.5C86.3641 30.94 86.4241 30.3333 86.5441 29.68C86.6774 29.0267 86.8907 28.42 87.1841 27.86C87.4907 27.3 87.8841 26.8333 88.3641 26.46C88.8574 26.0867 89.4641 25.9 90.1841 25.9C90.5174 25.9 90.8374 25.94 91.1441 26.02C91.4641 26.0867 91.7507 26.22 92.0041 26.42C92.2574 26.6067 92.4574 26.8667 92.6041 27.2C92.7641 27.5333 92.8441 27.9667 92.8441 28.5ZM88.4841 31.22C89.4307 31.0733 90.1774 30.74 90.7241 30.22C91.2841 29.7 91.5641 29.06 91.5641 28.3C91.5641 27.7933 91.4774 27.4333 91.3041 27.22C91.1307 26.9933 90.8841 26.88 90.5641 26.88C90.2174 26.88 89.9107 27.0133 89.6441 27.28C89.3907 27.5467 89.1774 27.8933 89.0041 28.32C88.8307 28.7333 88.6974 29.2 88.6041 29.72C88.5241 30.2267 88.4841 30.7267 88.4841 31.22Z" fill="black"/>
<path d="M99.292 31.608C100.276 31.608 101.356 31.716 102.532 31.932C103.708 32.148 104.896 32.256 106.096 32.256C106.744 32.256 107.296 32.208 107.752 32.112C108.208 32.016 108.604 31.872 108.94 31.68C109.276 31.464 109.564 31.2 109.804 30.888C110.044 30.576 110.296 30.204 110.56 29.772C110.608 29.964 110.728 30.312 110.92 30.816C111.136 31.296 111.244 32.028 111.244 33.012C111.244 34.188 110.98 35.052 110.452 35.604C109.924 36.132 108.928 36.396 107.464 36.396C106.624 36.396 105.856 36.324 105.16 36.18C104.464 36.06 103.768 35.916 103.072 35.748C102.376 35.58 101.656 35.436 100.912 35.316C100.192 35.172 99.388 35.1 98.5 35.1C98.284 35.1 98.056 35.148 97.816 35.244C97.6 35.316 97.372 35.412 97.132 35.532C96.892 35.628 96.664 35.736 96.448 35.856C96.232 35.952 96.04 36.036 95.872 36.108C95.824 35.988 95.728 35.76 95.584 35.424C95.44 35.088 95.368 34.548 95.368 33.804C95.368 32.676 95.596 31.62 96.052 30.636C96.532 29.652 97.12 28.704 97.816 27.792C98.536 26.88 99.304 25.98 100.12 25.092C100.96 24.204 101.728 23.28 102.424 22.32C103.144 21.336 103.732 20.304 104.188 19.224C104.668 18.144 104.908 16.944 104.908 15.624C104.908 15.072 104.848 14.532 104.728 14.004C104.632 13.476 104.452 13.008 104.188 12.6C103.948 12.168 103.6 11.832 103.144 11.592C102.712 11.328 102.172 11.196 101.524 11.196C100.66 11.196 100.084 11.388 99.796 11.772C99.508 12.156 99.364 12.588 99.364 13.068C99.364 13.332 99.4 13.632 99.472 13.968C99.544 14.304 99.652 14.628 99.796 14.94C99.964 15.252 100.168 15.54 100.408 15.804C100.672 16.068 100.984 16.248 101.344 16.344C101.008 16.728 100.624 17.028 100.192 17.244C99.784 17.46 99.34 17.568 98.86 17.568C98.428 17.568 98.008 17.484 97.6 17.316C97.216 17.124 96.868 16.872 96.556 16.56C96.244 16.224 95.992 15.816 95.8 15.336C95.608 14.856 95.512 14.304 95.512 13.68C95.512 13.08 95.62 12.504 95.836 11.952C96.052 11.376 96.412 10.872 96.916 10.44C97.42 10.008 98.08 9.672 98.896 9.432C99.736 9.168 100.756 9.036 101.956 9.036C103.468 9.036 104.74 9.24 105.772 9.648C106.828 10.032 107.68 10.56 108.328 11.232C108.976 11.904 109.444 12.672 109.732 13.536C110.02 14.376 110.164 15.24 110.164 16.128C110.164 17.424 109.924 18.588 109.444 19.62C108.964 20.652 108.352 21.612 107.608 22.5C106.864 23.388 106.048 24.216 105.16 24.984C104.272 25.728 103.408 26.46 102.568 27.18C101.728 27.9 100.972 28.62 100.3 29.34C99.652 30.06 99.184 30.816 98.896 31.608H99.292ZM112.964 26.28C113.06 25.44 113.264 24.492 113.576 23.436C113.912 22.356 114.26 21.228 114.62 20.052C114.98 18.876 115.292 17.688 115.556 16.488C115.844 15.288 115.988 14.124 115.988 12.996C115.988 11.868 115.928 11.04 115.808 10.512C115.688 9.984 115.532 9.48 115.34 9C115.964 9 116.54 9.048 117.068 9.144C117.596 9.24 118.04 9.444 118.4 9.756C118.784 10.044 119.084 10.464 119.3 11.016C119.516 11.544 119.624 12.252 119.624 13.14C119.624 13.956 119.504 14.796 119.264 15.66C119.024 16.524 118.736 17.4 118.4 18.288C118.088 19.152 117.74 20.016 117.356 20.88C116.996 21.744 116.696 22.596 116.456 23.436H122.036V9.72L127.256 9V23.436H129.524V26.28H127.256V36H122.036V26.28H112.964Z" fill="#16A34A"/>
<path d="M131 20.12H147V4.12H131V20.12Z" fill="black"/>
<path d="M131 31.12H147V15.12H131V31.12Z" fill="black"/>
<path d="M131 42.12H147V26.12H131V42.12Z" fill="black"/>
</svg>
